<?xml version="1.0" standalone="no"?>
<!DOCTYPE svg PUBLIC "-//W3C//DTD SVG 20010904//EN"
 "http://www.w3.org/TR/2001/REC-SVG-20010904/DTD/svg10.dtd">
<svg version="1.0" xmlns="http://www.w3.org/2000/svg"
 width="1080.000000pt" height="1080.000000pt" viewBox="0 0 1080.000000 1080.000000"
 preserveAspectRatio="xMidYMid meet">
<metadata>
Created by potrace 1.14, written by Peter Selinger 2001-2017
</metadata>
<g transform="translate(0.000000,1080.000000) scale(0.100000,-0.100000)"
fill="#000000" stroke="none">
<path d="M7148 8925 c-2 -2 -29 -6 -61 -9 -132 -14 -289 -56 -427 -114 -432
-182 -767 -537 -920 -976 -35 -102 -76 -298 -84 -401 -5 -69 -4 -71 26 -95 17
-14 53 -45 79 -70 26 -25 73 -67 104 -95 31 -27 81 -72 110 -100 29 -27 75
-70 102 -94 40 -37 162 -151 333 -311 20 -19 83 -78 140 -130 56 -52 115 -107
130 -122 15 -16 30 -28 32 -28 3 0 23 -17 44 -38 22 -20 68 -62 103 -92 35
-30 76 -66 91 -80 15 -14 45 -39 66 -56 22 -18 57 -48 79 -69 22 -20 55 -48
74 -63 18 -15 47 -39 65 -53 17 -15 87 -73 156 -129 69 -57 133 -110 142 -118
15 -12 27 -12 97 2 576 117 1052 545 1234 1111 25 79 36 123 58 240 18 95 20
376 3 475 -8 47 -17 103 -20 125 -3 22 -26 99 -50 172 -201 599 -707 1017
-1342 1108 -81 11 -355 19 -364 10z"/>
<path d="M3775 5154 c-919 -921 -1694 -1707 -1723 -1746 -54 -72 -127 -213
-156 -304 -32 -97 -45 -205 -41 -329 4 -138 6 -152 41 -260 103 -317 340 -532
679 -615 63 -16 262 -21 335 -10 58 9 64 11 145 30 72 18 239 100 318 157 41
30 703 686 1740 1726 919 923 1673 1679 1674 1681 1 1 -300 304 -670 674
l-673 673 -1669 -1677z"/>
</g>
</svg>
